<svg width="24" height="20" viewBox="0 0 24 20" fill="none" xmlns="http://www.w3.org/2000/svg">
<path fill-rule="evenodd" clip-rule="evenodd" d="M0.333344 1.66667C0.333344 0.746192 1.07954 0 2.00001 0H22C22.9205 0 23.6667 0.746192 23.6667 1.66667C23.6667 2.58714 22.9205 3.33333 22 3.33333H2.00001C1.07954 3.33333 0.333344 2.58714 0.333344 1.66667Z" fill="#1D2229"/>
<path fill-rule="evenodd" clip-rule="evenodd" d="M0.333344 1.66667C0.333344 0.746192 1.07954 0 2.00001 0H22C22.9205 0 23.6667 0.746192 23.6667 1.66667C23.6667 2.58714 22.9205 3.33333 22 3.33333H2.00001C1.07954 3.33333 0.333344 2.58714 0.333344 1.66667Z" fill="black" fill-opacity="0.2"/>
<path fill-rule="evenodd" clip-rule="evenodd" d="M0.333344 10C0.333344 9.07952 1.07954 8.33333 2.00001 8.33333H22C22.9205 8.33333 23.6667 9.07952 23.6667 10C23.6667 10.9205 22.9205 11.6667 22 11.6667H2.00001C1.07954 11.6667 0.333344 10.9205 0.333344 10Z" fill="#1D2229"/>
<path fill-rule="evenodd" clip-rule="evenodd" d="M0.333344 10C0.333344 9.07952 1.07954 8.33333 2.00001 8.33333H22C22.9205 8.33333 23.6667 9.07952 23.6667 10C23.6667 10.9205 22.9205 11.6667 22 11.6667H2.00001C1.07954 11.6667 0.333344 10.9205 0.333344 10Z" fill="black" fill-opacity="0.2"/>
<path fill-rule="evenodd" clip-rule="evenodd" d="M0.333344 18.3333C0.333344 17.4129 1.07954 16.6667 2.00001 16.6667H22C22.9205 16.6667 23.6667 17.4129 23.6667 18.3333C23.6667 19.2538 22.9205 20 22 20H2.00001C1.07954 20 0.333344 19.2538 0.333344 18.3333Z" fill="#1D2229"/>
<path fill-rule="evenodd" clip-rule="evenodd" d="M0.333344 18.3333C0.333344 17.4129 1.07954 16.6667 2.00001 16.6667H22C22.9205 16.6667 23.6667 17.4129 23.6667 18.3333C23.6667 19.2538 22.9205 20 22 20H2.00001C1.07954 20 0.333344 19.2538 0.333344 18.3333Z" fill="black" fill-opacity="0.2"/>
</svg>
