<svg width="18" height="18" viewBox="0 0 18 18" fill="none" xmlns="http://www.w3.org/2000/svg">
<path fill-rule="evenodd" clip-rule="evenodd" d="M17.7071 3.84845C17.8946 4.03598 18 4.29034 18 4.55556V16C18 17.1046 17.1046 18 16 18H13H5H2C0.89543 18 0 17.1046 0 16V2C0 0.895431 0.89543 0 2 0H5H13H13.0302C13.5607 0 14.0694 0.210714 14.4444 0.585786L17.7071 3.84845ZM14 2.96977L16 4.96977V16H14V10C14 9.44771 13.5523 9 13 9H5C4.44772 9 4 9.44771 4 10V16H2V2H4V5C4 5.55228 4.44772 6 5 6H13C13.5523 6 14 5.55228 14 5V2.96977ZM12 2H6V4H12V2ZM12 11V16H6V11H12Z" fill="white"/>
</svg>
