<svg width="17" height="15" viewBox="0 0 17 15" fill="none" xmlns="http://www.w3.org/2000/svg">
<path fill-rule="evenodd" clip-rule="evenodd" d="M0.75 2C0.75 1.0335 1.5335 0.25 2.5 0.25H9.5C10.4665 0.25 11.25 1.0335 11.25 2V14.75H2.5C1.5335 14.75 0.75 13.9665 0.75 13V2ZM2.5 1.75C2.36193 1.75 2.25 1.86193 2.25 2V13C2.25 13.1381 2.36193 13.25 2.5 13.25H9.75V2C9.75 1.86193 9.63807 1.75 9.5 1.75H2.5Z" fill="#1D2229"/>
<path fill-rule="evenodd" clip-rule="evenodd" d="M0.75 2C0.75 1.0335 1.5335 0.25 2.5 0.25H9.5C10.4665 0.25 11.25 1.0335 11.25 2V14.75H2.5C1.5335 14.75 0.75 13.9665 0.75 13V2ZM2.5 1.75C2.36193 1.75 2.25 1.86193 2.25 2V13C2.25 13.1381 2.36193 13.25 2.5 13.25H9.75V2C9.75 1.86193 9.63807 1.75 9.5 1.75H2.5Z" fill="black" fill-opacity="0.2"/>
<path fill-rule="evenodd" clip-rule="evenodd" d="M14.5133 7.25H10.5V5.75H15.2633C15.6775 5.75 16.0133 6.08579 16.0133 6.5V13.9949C16.0133 14.4091 15.6775 14.7449 15.2633 14.7449H10.5V13.2449H14.5133V7.25Z" fill="#1D2229"/>
<path fill-rule="evenodd" clip-rule="evenodd" d="M14.5133 7.25H10.5V5.75H15.2633C15.6775 5.75 16.0133 6.08579 16.0133 6.5V13.9949C16.0133 14.4091 15.6775 14.7449 15.2633 14.7449H10.5V13.2449H14.5133V7.25Z" fill="black" fill-opacity="0.2"/>
</svg>
