<svg width="16" height="15" viewBox="0 0 16 15" fill="none" xmlns="http://www.w3.org/2000/svg">
<path fill-rule="evenodd" clip-rule="evenodd" d="M0.25 2C0.25 1.0335 1.0335 0.25 2 0.25H9C9.9665 0.25 10.75 1.0335 10.75 2V14.75H2C1.0335 14.75 0.25 13.9665 0.25 13V2ZM2 1.75C1.86193 1.75 1.75 1.86193 1.75 2V13C1.75 13.1381 1.86193 13.25 2 13.25H9.25V2C9.25 1.86193 9.13807 1.75 9 1.75H2Z" fill="#1D2229"/>
<path fill-rule="evenodd" clip-rule="evenodd" d="M0.25 2C0.25 1.0335 1.0335 0.25 2 0.25H9C9.9665 0.25 10.75 1.0335 10.75 2V14.75H2C1.0335 14.75 0.25 13.9665 0.25 13V2ZM2 1.75C1.86193 1.75 1.75 1.86193 1.75 2V13C1.75 13.1381 1.86193 13.25 2 13.25H9.25V2C9.25 1.86193 9.13807 1.75 9 1.75H2Z" fill="black" fill-opacity="0.2"/>
<path fill-rule="evenodd" clip-rule="evenodd" d="M14.0133 7.25H10V5.75H14.7633C15.1775 5.75 15.5133 6.08579 15.5133 6.5V13.9949C15.5133 14.4091 15.1775 14.7449 14.7633 14.7449H10V13.2449H14.0133V7.25Z" fill="#1D2229"/>
<path fill-rule="evenodd" clip-rule="evenodd" d="M14.0133 7.25H10V5.75H14.7633C15.1775 5.75 15.5133 6.08579 15.5133 6.5V13.9949C15.5133 14.4091 15.1775 14.7449 14.7633 14.7449H10V13.2449H14.0133V7.25Z" fill="black" fill-opacity="0.2"/>
</svg>
